<svg width="318" height="32" viewBox="0 0 318 32" fill="none" xmlns="http://www.w3.org/2000/svg">
<path d="M287.124 1.86969C287.136 2.04452 287.107 2.21974 287.04 2.38187L285.429 6.29276H273.762C273.21 6.2933 272.671 6.4644 272.22 6.78263C271.768 7.10085 271.426 7.55065 271.241 8.07044C271.039 8.6253 271.027 9.23123 271.206 9.79388C271.384 10.3565 271.744 10.8443 272.23 11.1814L277.727 14.9244C278.874 15.7008 279.729 16.8371 280.157 18.1536C280.585 19.4701 280.562 20.8916 280.09 22.1931L279.447 24.0004C278.604 26.3214 277.065 28.3259 275.038 29.74C273.012 31.1541 270.598 31.9089 268.126 31.9012C264.406 32.0328 260.68 31.8378 256.994 31.3185C256.819 31.2982 256.652 31.2378 256.505 31.142C256.358 31.0462 256.235 30.9177 256.146 30.7666C256.057 30.6154 256.004 30.4457 255.991 30.2707C255.979 30.0958 256.007 29.9203 256.074 29.7581L257.765 25.6695H268.641C269.292 25.6641 269.927 25.4584 270.458 25.0802C270.988 24.7021 271.39 24.1699 271.607 23.556C271.848 22.8912 271.86 22.1651 271.641 21.4927C271.423 20.8202 270.986 20.2396 270.401 19.8426L265.408 16.4453C264.21 15.6307 263.317 14.4418 262.87 13.0652C262.422 11.6887 262.446 10.2027 262.936 8.84077L263.262 7.95193C264.103 5.63568 265.638 3.63456 267.659 2.22087C269.679 0.807173 272.086 0.0495652 274.553 0.0511331C274.553 0.0511331 277.163 -0.294527 286.131 0.811585C286.305 0.834734 286.471 0.89742 286.617 0.99482C286.763 1.09222 286.884 1.22174 286.972 1.37341C287.06 1.52508 287.112 1.69486 287.124 1.86969Z" fill="#43A631"/>
<path fill-rule="evenodd" clip-rule="evenodd" d="M127.68 0.00175314H114.007L103.131 30.3803C103.071 30.5511 103.053 30.7337 103.078 30.9129C103.103 31.0921 103.171 31.2627 103.275 31.4106C103.38 31.5584 103.518 31.6792 103.679 31.7628C103.839 31.8464 104.018 31.8905 104.199 31.8913H110.546L114.382 21.2253H118.05L118.911 30.8642C118.945 31.1383 119.078 31.3903 119.286 31.5724C119.494 31.7545 119.761 31.8539 120.038 31.8518H126.959L125.832 19.8525C127.971 19.0218 129.888 17.7064 131.433 16.0098C132.977 14.3132 134.105 12.2817 134.73 10.0753C135.141 8.94226 135.272 7.72725 135.114 6.5327C134.956 5.33814 134.513 4.19905 133.822 3.21146C133.131 2.22388 132.212 1.41676 131.143 0.858149C130.074 0.29954 128.887 0.00581945 127.68 0.00175314ZM126.692 10.3617V10.4308C126.211 11.7772 125.325 12.9418 124.155 13.7642C122.984 14.5866 121.587 15.0265 120.156 15.0231H116.587L119.632 6.21375H123.755C124.255 6.20919 124.749 6.32563 125.194 6.55312C125.639 6.78061 126.022 7.11238 126.31 7.52005C126.599 7.92772 126.784 8.39915 126.851 8.89402C126.917 9.38889 126.863 9.89246 126.692 10.3617Z" fill="#43A631"/>
<path fill-rule="evenodd" clip-rule="evenodd" d="M15.3138 4.13979L0.156871 30.242C0.054885 30.4144 0.000737557 30.6107 7.48169e-06 30.8109C-0.000722593 31.0111 0.0519911 31.2078 0.152718 31.3809C0.253444 31.5539 0.398541 31.697 0.573059 31.7954C0.747576 31.8938 0.945204 31.944 1.14558 31.9407H7.12727L11.794 23.9115H19.7728L19.0511 31.9407H26.9904L29.5611 3.30033C29.5978 2.88658 29.5488 2.46971 29.417 2.07574C29.2852 1.68176 29.0736 1.31915 28.7952 1.01055C28.5169 0.701938 28.1779 0.453958 27.7993 0.282088C27.4207 0.110218 27.0107 0.0181491 26.5949 0.0116291H22.4226C20.9794 0.0172824 19.5631 0.401613 18.3155 1.12612C17.0679 1.85064 16.0327 2.88989 15.3138 4.13979ZM20.2573 18.6575H14.8293L21.2065 7.70503L20.2573 18.6575Z" fill="#43A631"/>
<path fill-rule="evenodd" clip-rule="evenodd" d="M225.889 29.452L240.591 4.13979C241.311 2.88845 242.347 1.84826 243.597 1.12366C244.847 0.399065 246.265 0.0155531 247.71 0.0116291H251.922C252.337 0.0181491 252.747 0.110218 253.126 0.282088C253.504 0.453958 253.844 0.701938 254.122 1.01055C254.4 1.31915 254.612 1.68176 254.744 2.07574C254.875 2.46971 254.924 2.88658 254.888 3.30033L252.317 31.9407H244.407L245.03 23.9115H237.071L232.404 31.9407H227.323C227.031 31.9399 226.746 31.8626 226.494 31.7166C226.242 31.5706 226.033 31.3611 225.888 31.109C225.742 30.8569 225.666 30.5712 225.666 30.2803C225.667 29.9895 225.743 29.7038 225.889 29.452ZM240.156 18.6575H245.535L246.484 7.70503L240.156 18.6575Z" fill="#43A631"/>
<path d="M42.6021 0.0511331H48.9496C49.1316 0.0497305 49.3111 0.0923442 49.473 0.175333C49.6349 0.258322 49.7742 0.37922 49.8792 0.527696C49.9841 0.676173 50.0515 0.847815 50.0755 1.02796C50.0996 1.2081 50.0797 1.39139 50.0174 1.56216L41.9298 24.0597C41.8616 24.2508 41.8404 24.4555 41.868 24.6565C41.8957 24.8575 41.9714 25.0489 42.0887 25.2145C42.2061 25.3802 42.3616 25.5151 42.5421 25.6081C42.7227 25.701 42.923 25.7492 43.1261 25.7485H50.5612C50.7432 25.7471 50.9227 25.7897 51.0846 25.8727C51.2465 25.9557 51.3858 26.0766 51.4908 26.225C51.5957 26.3735 51.6631 26.5451 51.6871 26.7253C51.7112 26.9054 51.6913 27.0887 51.629 27.2595L50.3042 30.9531C41.91 32.237 38.7561 31.9407 38.7561 31.9407C37.8968 31.9404 37.0503 31.7338 36.2877 31.3382C35.5252 30.9426 34.8691 30.3697 34.3748 29.6677C33.8804 28.9657 33.5623 28.1553 33.4472 27.3047C33.3322 26.4542 33.4235 25.5885 33.7136 24.7806L42.6021 0.0511331Z" fill="#43A631"/>
<path d="M71.7394 0.0511331H65.3919L56.5034 24.7806C56.2133 25.5885 56.1219 26.4542 56.2369 27.3047C56.352 28.1553 56.6701 28.9657 57.1645 29.6677C57.6588 30.3697 58.315 30.9426 59.0775 31.3382C59.84 31.7338 60.6865 31.9404 61.5458 31.9407C61.5458 31.9407 64.6998 32.237 73.0939 30.9531L74.4188 27.2595C74.4786 27.0887 74.4968 26.9061 74.4717 26.7269C74.4466 26.5477 74.379 26.3771 74.2745 26.2292C74.1701 26.0814 74.0317 25.9606 73.8711 25.877C73.7104 25.7934 73.5321 25.7493 73.351 25.7485H65.9159C65.7127 25.7492 65.5124 25.701 65.3319 25.6081C65.1513 25.5151 64.9958 25.3802 64.8784 25.2145C64.7611 25.0489 64.6854 24.8575 64.6578 24.6565C64.6301 24.4555 64.6513 24.2508 64.7195 24.0597L72.8072 1.56216C72.867 1.39137 72.8852 1.20877 72.8601 1.02956C72.835 0.850356 72.7674 0.67973 72.6629 0.531898C72.5585 0.384066 72.4201 0.263308 72.2595 0.179682C72.0988 0.0960559 71.9205 0.0519826 71.7394 0.0511331Z" fill="#43A631"/>
<path d="M97.3469 0.0511331C100.4 -0.027396 103.454 0.131097 106.483 0.525181C106.651 0.539924 106.814 0.592063 106.96 0.677795C107.106 0.763527 107.231 0.88069 107.326 1.02074C107.42 1.16079 107.482 1.32019 107.508 1.48733C107.533 1.65446 107.52 1.82511 107.471 1.98683L106.137 6.27301H97.3568C96.4617 6.27444 95.5887 6.55101 94.8564 7.06516C94.1241 7.57932 93.568 8.30614 93.2635 9.14692L91.7706 13.3442H102.043C102.216 13.3525 102.385 13.4005 102.537 13.4845C102.688 13.5685 102.818 13.6862 102.917 13.8286C103.015 13.9709 103.079 14.134 103.105 14.3052C103.13 14.4764 103.115 14.6511 103.062 14.8157L101.381 19.497H89.5163L87.8652 24.0399C87.7974 24.2316 87.7764 24.4367 87.8041 24.6381C87.8318 24.8395 87.9074 25.0314 88.0245 25.1976C88.1416 25.3639 88.2969 25.4998 88.4773 25.5939C88.6577 25.688 88.858 25.7376 89.0615 25.7386H97.5249C97.7068 25.7372 97.8864 25.7798 98.0483 25.8628C98.2101 25.9458 98.3495 26.0667 98.4544 26.2152C98.5593 26.3636 98.6267 26.5353 98.6508 26.7154C98.6749 26.8956 98.6549 27.0788 98.5927 27.2496L97.2876 30.8939C93.1382 31.6895 88.9152 32.0372 84.6914 31.9308C83.8322 31.9306 82.9856 31.7239 82.2231 31.3283C81.4606 30.9327 80.8045 30.3598 80.3101 29.6578C79.8158 28.9558 79.4977 28.1454 79.3826 27.2948C79.2675 26.4443 79.3589 25.5786 79.649 24.7707L85.5813 8.32722C86.4556 5.9087 88.0535 3.81735 90.1582 2.33685C92.263 0.856351 94.7727 0.0583627 97.3469 0.0511331Z" fill="#43A631"/>
<path d="M164.431 7.08284L166.171 2.25348C166.227 2.09173 166.246 1.91954 166.226 1.74956C166.207 1.57959 166.149 1.41613 166.058 1.27121C165.967 1.12628 165.845 1.00356 165.7 0.912063C165.555 0.820564 165.392 0.762609 165.222 0.742453C156.165 -0.166139 153.357 0.0511331 153.357 0.0511331C150.431 0.052517 147.577 0.956367 145.184 2.63918C142.792 4.32199 140.978 6.70168 139.99 9.45308L135.61 21.6302C135.198 22.7916 135.072 24.0352 135.244 25.2555C135.416 26.4757 135.88 27.6364 136.598 28.639C137.315 29.6415 138.264 30.4562 139.364 31.0139C140.464 31.5715 141.683 31.8556 142.916 31.842C142.916 31.842 146.268 32.1679 155.523 30.9926L160.713 16.6132C160.775 16.4424 160.795 16.2591 160.771 16.079C160.747 15.8988 160.68 15.7272 160.575 15.5787C160.47 15.4302 160.331 15.3093 160.169 15.2263C160.007 15.1434 159.827 15.1007 159.645 15.1021H153.298L149.462 25.7682H146.674C146.156 25.7667 145.647 25.6413 145.188 25.4023C144.729 25.1634 144.335 24.818 144.037 24.3952C143.74 23.9724 143.549 23.4844 143.479 22.9724C143.41 22.4603 143.464 21.939 143.638 21.4524L146.98 13.0084C147.594 11.2747 148.731 9.77382 150.234 8.71254C151.737 7.65127 153.533 7.08188 155.374 7.08284H164.431Z" fill="#43A631"/>
<path d="M170.818 0.0511331H177.739C178.015 0.049044 178.283 0.148498 178.491 0.330586C178.698 0.512674 178.832 0.764696 178.866 1.03873L179.855 12.4258L189.524 0.0511331H195.189C195.401 0.0492287 195.609 0.107015 195.79 0.217863C195.97 0.328712 196.116 0.488133 196.21 0.677842C196.304 0.867551 196.342 1.07986 196.321 1.29043C196.3 1.50099 196.219 1.70128 196.089 1.86832L184.047 17.6699C183.798 17.9833 183.481 18.2354 183.119 18.4066C182.757 18.5779 182.361 18.6637 181.961 18.6575L177.185 31.9407H170.838C170.656 31.9421 170.476 31.8995 170.314 31.8165C170.152 31.7335 170.013 31.6126 169.908 31.4641C169.803 31.3157 169.736 31.144 169.712 30.9639C169.688 30.7837 169.708 30.6005 169.77 30.4297L174.011 18.6575C173.608 18.6592 173.219 18.5101 172.921 18.2395C172.623 17.969 172.437 17.5966 172.4 17.1959L170.818 0.0511331Z" fill="#43A631"/>
<path d="M207.43 0.0708851H201.636L190.74 30.4297C190.678 30.6005 190.658 30.7837 190.682 30.9639C190.706 31.144 190.774 31.3157 190.879 31.4641C190.984 31.6126 191.123 31.7335 191.285 31.8165C191.447 31.8995 191.626 31.9421 191.808 31.9407H198.136L204.661 13.68L206.184 20.3364C206.236 20.5882 206.374 20.8142 206.574 20.9761C206.774 21.1381 207.024 21.2261 207.281 21.2253H212.027L218.325 14.3121L212.571 30.4297C212.508 30.6028 212.488 30.7889 212.514 30.9714C212.539 31.154 212.609 31.3275 212.718 31.4766C212.826 31.6258 212.969 31.7462 213.135 31.8271C213.301 31.908 213.484 31.947 213.668 31.9407H219.947L230.773 1.56216C230.835 1.39217 230.855 1.20978 230.832 1.03041C230.808 0.851052 230.741 0.680006 230.638 0.53176C230.534 0.383514 230.396 0.262433 230.235 0.17877C230.075 0.0951072 229.896 0.0513258 229.715 0.0511331H223.318L211.305 13.2553L208.527 0.949848C208.473 0.699897 208.334 0.476192 208.134 0.316184C207.935 0.156176 207.686 0.0695773 207.43 0.0708851Z" fill="#43A631"/>
<path d="M293.744 0.0708851H300.091C300.274 0.0711781 300.453 0.115269 300.615 0.19944C300.777 0.28361 300.916 0.405391 301.021 0.554509C301.125 0.703627 301.192 0.875708 301.217 1.05624C301.241 1.23677 301.221 1.42045 301.159 1.59179L297.125 12.8405L310.453 0.0708851H316.82C317.054 0.059989 317.286 0.122171 317.483 0.248787C317.68 0.375404 317.832 0.560165 317.919 0.777391C318.006 0.994618 318.023 1.23352 317.968 1.46089C317.913 1.68826 317.788 1.8928 317.611 2.04608L302.781 16.465L306.805 31.9901H299.083C298.831 31.9912 298.587 31.9082 298.388 31.7542C298.189 31.6003 298.047 31.3844 297.986 31.1408L294.881 19.1612L290.274 32H283.926C283.744 32.0014 283.564 31.9588 283.403 31.8758C283.241 31.7928 283.101 31.6719 282.997 31.5234C282.892 31.3749 282.824 31.2033 282.8 31.0231C282.776 30.843 282.796 30.6597 282.858 30.4889L293.744 0.0708851Z" fill="#43A631"/>
</svg>
